<?xml version="1.0" standalone="no"?><!DOCTYPE svg PUBLIC "-//W3C//DTD SVG 1.1//EN" "http://www.w3.org/Graphics/SVG/1.1/DTD/svg11.dtd"><svg class="icon" height="512" viewBox="0 0 1024 1024" version="1.1" xmlns="http://www.w3.org/2000/svg"><path d="M682.837333 995.555556 340.622222 995.555556c-16.412444 0-29.724444-13.368889-29.724444-29.781333 0-16.440889 13.312-29.752889 29.724444-29.752889l342.215111 0c16.469333 0 29.781333 13.312 29.781333 29.752889C712.618667 982.186667 699.306667 995.555556 682.837333 995.555556zM779.377778 906.268444 244.081778 906.268444l-7.338667-4.664889c-130.588444-83.370667-208.554667-220.416-208.554667-366.705778 0-21.048889 1.649778-42.410667 4.892444-63.402667l3.925333-25.258667 949.504 0 3.925333 25.258667c3.214222 20.992 4.892444 42.353778 4.892444 63.402667 0 146.289778-77.966222 283.335111-208.526222 366.705778L779.377778 906.268444zM261.575111 846.762667l500.337778 0c109.027556-72.760889 173.852444-188.672 173.852444-311.836444 0-9.642667-0.398222-19.399111-1.223111-29.098667L88.917333 505.827556c-0.796444 9.728-1.223111 19.456-1.223111 29.098667C87.694222 658.090667 152.547556 774.001778 261.575111 846.762667zM325.774222 238.876444c-7.623111 0-15.217778-2.901333-20.992-8.732444-53.248-53.191111-53.248-139.832889 0-193.024 11.605333-11.605333 30.435556-11.605333 42.069333 0 11.633778 11.605333 11.633778 30.464 0 42.069333-30.008889 30.008889-30.008889 78.848 0 108.856889 11.633778 11.605333 11.633778 30.464 0 42.069333C341.048889 236.003556 333.454222 238.876444 325.774222 238.876444zM325.774222 389.831111c-7.623111 0-15.217778-2.872889-20.992-8.732444-11.633778-11.605333-11.633778-30.407111 0-42.069333 14.535111-14.506667 22.528-33.848889 22.528-54.442667 0-20.536889-8.021333-39.850667-22.528-54.414222-11.633778-11.605333-11.633778-30.464 0-42.069333 11.605333-11.605333 30.435556-11.605333 42.069333 0 25.770667 25.799111 39.964444 60.046222 39.964444 96.512 0 36.465778-14.193778 70.769778-39.964444 96.540444C341.048889 386.958222 333.425778 389.831111 325.774222 389.831111zM517.233778 238.876444c-7.623111 0-15.217778-2.901333-21.020444-8.732444-53.248-53.191111-53.248-139.832889 0-193.024 11.605333-11.605333 30.407111-11.605333 42.069333 0 11.605333 11.605333 11.605333 30.464 0 42.069333-30.037333 30.008889-30.037333 78.848 0 108.856889 11.605333 11.605333 11.605333 30.464 0 42.069333C532.451556 236.003556 524.856889 238.876444 517.233778 238.876444zM517.233778 389.831111c-7.623111 0-15.217778-2.872889-21.020444-8.732444-11.633778-11.605333-11.633778-30.407111 0-42.069333 30.008889-29.952 30.008889-78.819556 0-108.856889-11.633778-11.605333-11.633778-30.464 0-42.069333 11.605333-11.605333 30.407111-11.605333 42.069333 0 53.191111 53.248 53.191111 139.832889 0 193.024C532.451556 386.958222 524.856889 389.831111 517.233778 389.831111zM697.685333 238.876444c-7.623111 0-15.217778-2.901333-21.048889-8.732444-53.219556-53.191111-53.219556-139.832889 0-193.024 11.633778-11.605333 30.464-11.605333 42.097778 0 11.605333 11.605333 11.605333 30.464 0 42.069333-30.037333 30.008889-30.037333 78.848 0 108.856889 11.605333 11.605333 11.605333 30.464 0 42.069333C712.903111 236.003556 705.336889 238.876444 697.685333 238.876444zM697.685333 389.831111c-7.623111 0-15.217778-2.872889-21.048889-8.732444-11.605333-11.605333-11.605333-30.407111 0-42.069333 30.037333-29.952 30.037333-78.819556 0-108.856889-11.605333-11.605333-11.605333-30.464 0-42.069333 11.633778-11.605333 30.492444-11.605333 42.097778 0 53.219556 53.248 53.219556 139.832889 0 193.024C712.903111 386.958222 705.336889 389.831111 697.685333 389.831111z" /></svg>